Coordinates
version=1
nRows=8
nColumns=63
inDegrees=yes

Units are S.I. units (second, meters, Newtons, ...)
If the header above contains a line with 'inDegrees', this indicates whether rotational values are in degrees (yes) or radians (no).

endheader
time	pelvis_tilt	pelvis_list	pelvis_rotation	pelvis_tx	pelvis_ty	pelvis_tz	hip_flexion_r	hip_adduction_r	hip_rotation_r	knee_angle_r	knee_angle_r_beta	ankle_angle_r	subtalar_angle_r	mtp_angle_r	hip_flexion_l	hip_adduction_l	hip_rotation_l	knee_angle_l	knee_angle_l_beta	ankle_angle_l	subtalar_angle_l	mtp_angle_l	L5_S1_Flex_Ext	L5_S1_Lat_Bending	L5_S1_axial_rotation	L4_L5_Flex_Ext	L4_L5_Lat_Bending	L4_L5_axial_rotation	L3_L4_Flex_Ext	L3_L4_Lat_Bending	L3_L4_axial_rotation	L2_L3_Flex_Ext	L2_L3_Lat_Bending	L2_L3_axial_rotation	L1_L2_Flex_Ext	L1_L2_Lat_Bending	L1_L2_axial_rotation	L1_T12_Flex_Ext	L1_T12_Lat_Bending	L1_T12_axial_rotation	Abs_r3	Abs_r2	Abs_r1	Abs_t1	Abs_t2	neck_flexion	neck_bending	neck_rotation	arm_flex_r	arm_add_r	arm_rot_r	elbow_flex_r	pro_sup_r	wrist_flex_r	wrist_dev_r	arm_flex_l	arm_add_l	arm_rot_l	elbow_flex_l	pro_sup_l	wrist_flex_l	wrist_dev_l
2.849057	2.714324	-2.577946	96.860226	0.183900	0.753464	0.792334	10.246677	-0.516553	-1.356946	13.350857	0.233016	33.629073	-2.473154	0.000000	6.905977	-0.069014	7.605204	6.903633	0.120491	32.208072	-3.083090	0.000000	0.200305	0.029419	0.378743	0.371987	0.039127	0.402415	0.329081	0.071529	0.402415	0.228929	0.071529	0.331400	0.186003	0.059991	0.307729	0.114454	0.045570	0.284058	1.430760	0.332793	2.106457	0.000000	0.000000	25.383443	3.144339	-1.140391	3.420852	-24.450996	393.407993	88.777933	81.794818	7.524361	-11.398772	3.170900	-16.507412	33.331903	75.890587	87.043449	6.460457	-8.558256
2.867925	2.682135	-2.416927	96.600062	0.183612	0.753582	0.792213	10.235091	-0.545942	-1.488921	13.704737	0.239193	33.657510	-2.306119	0.000000	6.573459	0.019076	9.004378	6.614189	0.115439	31.747192	-5.200987	0.000000	0.194493	0.023383	0.399935	0.361193	0.031099	0.424931	0.319532	0.056852	0.424931	0.222286	0.056852	0.349943	0.180606	0.047682	0.324947	0.111133	0.036220	0.299951	1.389242	0.264508	2.224317	0.000000	0.000000	25.262082	3.250530	-1.230717	2.612921	-25.144157	394.622493	87.186460	78.972453	8.168353	-12.066820	3.263769	-16.607424	34.622245	73.972249	88.336239	8.380487	-9.163956
2.886792	2.652680	-2.236723	96.456697	0.183184	0.753874	0.791983	10.076096	-0.577383	-1.600629	13.855559	0.241825	33.579154	-2.197809	0.000000	6.239859	0.106990	10.342294	6.364285	0.111078	31.310190	-7.099398	0.000000	0.188943	0.018624	0.378571	0.350887	0.024770	0.402232	0.310415	0.045283	0.402232	0.215943	0.045283	0.331250	0.175453	0.037978	0.307589	0.107962	0.028849	0.283928	1.349604	0.210679	2.105499	0.000000	0.000000	25.209504	3.388267	-1.208257	2.114605	-25.346799	395.790065	85.216726	76.366083	8.743216	-12.195209	3.436545	-16.603204	35.901862	72.045504	89.208376	9.985061	-9.316522
2.905660	2.630095	-2.047696	96.398922	0.182674	0.754308	0.791715	9.803884	-0.603739	-1.647841	13.830906	0.241395	33.397624	-2.166162	0.000000	5.918896	0.183477	11.569044	6.155652	0.107436	30.904412	-8.730708	0.000000	0.185156	0.015243	0.318638	0.343853	0.020273	0.338553	0.304192	0.037061	0.338553	0.211614	0.037061	0.278809	0.171936	0.031083	0.258894	0.105798	0.023611	0.238979	1.322549	0.172427	1.772171	0.000000	0.000000	25.230224	3.559895	-1.120166	1.920483	-25.129694	396.967545	82.917879	73.967128	9.357601	-11.736229	3.627230	-16.484154	37.047872	70.163215	89.628096	11.381611	-9.034123
2.924528	2.616662	-1.852221	96.414642	0.182129	0.754851	0.791464	9.420012	-0.621114	-1.678397	13.610365	0.237546	33.129391	-2.137090	0.000000	5.619783	0.243492	12.627424	5.998668	0.104697	30.535750	-10.069781	0.000000	0.182980	0.013719	0.218805	0.339812	0.018246	0.232480	0.300618	0.033356	0.232480	0.209128	0.033356	0.191454	0.169915	0.027975	0.177779	0.104555	0.021250	0.164104	1.307008	0.155188	1.216927	0.000000	0.000000	25.317727	3.813236	-0.889440	2.090739	-24.578573	398.292095	80.316122	71.853486	10.144028	-10.739553	3.751326	-16.243474	37.868325	68.377458	89.721679	12.754994	-8.352776
2.943396	2.615900	-1.652115	96.461016	0.181603	0.755460	0.791245	8.936513	-0.617896	-1.572047	13.196403	0.230321	32.781317	-2.206099	0.000000	5.341161	0.274224	13.451753	5.894286	0.102875	30.241397	-11.042978	0.000000	0.182552	0.013953	0.099941	0.339017	0.018558	0.106187	0.299915	0.033925	0.106187	0.208639	0.033925	0.087448	0.169518	0.028453	0.081202	0.104310	0.021613	0.074955	1.303951	0.157839	0.555840	0.000000	0.000000	25.465270	4.067488	-0.671036	2.583474	-23.794157	399.717632	77.484514	70.197463	11.059295	-9.395883	3.846219	-15.917743	38.573243	66.719188	89.345566	13.841502	-7.382973
2.962264	2.637292	-1.472848	96.546984	0.181066	0.756081	0.791093	8.408628	-0.600863	-1.582602	12.640708	0.220622	32.439348	-2.045348	0.000000	5.108949	0.274747	14.103741	5.834397	0.101829	29.996910	-11.713312	0.000000	0.187360	0.018022	-0.044061	0.347947	0.023970	-0.046814	0.307814	0.043820	-0.046814	0.214134	0.043820	-0.038553	0.173983	0.036751	-0.035799	0.107058	0.027917	-0.033045	1.338297	0.203872	-0.245051	0.000000	0.000000	25.662753	4.432043	-0.269397	3.426575	-22.834667	401.362822	74.420935	69.045181	11.921496	-7.975126	3.773193	-15.457391	38.740780	65.182785	89.170668	14.984033	-6.106299
2.981132	2.691033	-1.320666	96.643334	0.180573	0.756669	0.791041	7.849269	-0.544699	-1.366997	11.940013	0.208393	32.009406	-2.104673	0.000000	4.936205	0.224198	14.452063	5.832563	0.101797	29.848173	-11.939151	0.000000	0.198277	0.026495	-0.182210	0.368220	0.035238	-0.193598	0.325749	0.064419	-0.193598	0.226610	0.064419	-0.159434	0.184120	0.054028	-0.148046	0.113295	0.041040	-0.136658	1.416270	0.299712	-1.013398	0.000000	0.000000	25.901549	4.750229	0.094036	4.506495	-21.755435	403.060059	71.192126	68.448007	12.721731	-6.631002	3.754405	-14.944079	38.990663	63.683255	88.616843	15.735028	-4.789757
